<?xml version="1.0" encoding="UTF-8"?>
<svg id="Layer_2" xmlns="http://www.w3.org/2000/svg" viewBox="0 0 1125 196.74">
  <defs>
    <style>
      .cls-1 {
        fill: #fff;
      }
    </style>
  </defs>
  <g id="Layer_1-2" data-name="Layer_1">
    <g>
      <path d="M1124.93,44.49c0,49.71-.02,99.43.07,149.14,0,2.48-.38,3.11-3.03,3.11-372.98-.08-745.97-.08-1118.95,0-2.65,0-3.03-.63-3.03-3.11.09-49.71.07-99.42.07-149.14,3.55-1.53,7.38-2.66,10.48-4.83.95-.67.79-5.15-.39-6.21-3.1-2.83-4.58-10.11-1.76-13.11.23-.24.56-.43.88-.53,5.29-1.79,8,.14,8.03,5.7,0,1.25.2,2.54-.06,3.74-.28,1.27-.67,2.79-1.56,3.6-3.08,2.78-3.06,5.9.36,8.53,1.83,1.42,5.4.99,6.92-.82,1-1.19.35-6.11-1.17-6.89-2.55-1.3-2.37-3.47-2.19-5.66.14-1.71.29-3.46.81-5.07.59-1.82.57-4.13,3.78-4.04,2.87.08,4.43.69,4.48,3.82.02,1.43.36,2.96.94,4.27,1.03,2.33.61,4.36-1.48,5.48-3.15,1.68-2.44,4.41-2.57,7.03-.13,2.69,2.24,2.82,3.41,2.38,2.33-.87,4.35-2.58,6.52-3.91,1.01-.62,2.03-1.23,3.11-1.69.83-.36,1.76-.48,2.64-.7-.5-.93-.78-2.16-1.55-2.73-3.41-2.54-3.45-5.69-2.09-9.24.26-.68.38-1.44.73-2.07.48-.88,1.36-2.48,1.65-2.39,1.97.6,4.67-1.96,6,1.57,1.76,4.7,2.88,9.12-1.64,12.99-.45.39-.52,1.3-.6,1.98-.01.13.82.56,1.19.49,2.14-.41,4.28-.88,6.38-1.47.41-.12.93-1.26.92-1.27-4.31-3.18-1.73-7.51-1.79-11.33-.02-1.01,1.17-2.86,1.91-2.92,2.05-.15,4.71-.23,6.12.9,1.81,1.46,2.87,9.7.66,11.93-2.62,2.64-.88,4.14.76,5.89.57.61,1.3,1.07,1.96,1.6.16-.79.41-1.57.47-2.37.08-1.12-.14-2.27.05-3.37,1.03-6.1-1.13-13.06,4.81-17.87.42-.34.36-1.38.39-2.1.06-1.37-.15-2.78.09-4.11.13-.7.96-1.27,1.47-1.9.48.54,1.24,1.01,1.39,1.63.41,1.66.24,3.52.9,5.03.7,1.59,2.11,2.86,3.21,4.28.9-1.36,2.31-2.62,2.59-4.1.79-4.1,1.07-8.29,1.65-12.43.09-.67.73-1.26,1.12-1.88.36.65.98,1.28,1.04,1.97.34,3.69.28,7.44.93,11.06.27,1.49,1.98,2.72,3.04,4.07.69-1.31,1.46-2.59,2.04-3.95.23-.53-.17-1.35.09-1.83.46-.87,1.07-2.01,1.87-2.27,1.29-.41,2.73-.32,2.66,1.87-.04,1.31.16,2.78.75,3.92.83,1.62,2.12,3.01,3.21,4.5.65-1.47,1.47-2.9,1.91-4.44.3-1.04.08-2.23.05-3.36-.03-1.42-.17-2.67,2.01-2.67,1.97,0,2.7.58,2.53,2.56-.08.95.19,1.95.42,2.9.82,3.27,2.09,6.48,2.45,9.8.59,5.41.69,10.88.79,16.33.04,1.91.8,2.3,2.46,2.23,2.37-.1,4.75-.13,7.12,0,2.47.15,3.31-.87,3.25-3.29-.12-5.12-.19-10.25.05-15.36.08-1.8.89-3.68,1.77-5.3,1.48-2.72,4.34-4.78,3.51-8.53-.11-.51,1.1-1.34,1.74-1.98.21-.2.56-.26.84-.39,0,.34,0,.67,0,1.01,0,3.11-.36,6.3,2.45,8.66.49.41.78,1.26.83,1.94.31,4.32.69,8.64.73,12.96.03,2.94-.45,5.89-.69,8.84-.23,2.86,2.15,2.51,3.76,2.75.36.05,1.4-1.63,1.42-2.53.13-5.74.06-11.49.08-17.24,0-.99-.29-2.47.24-2.9,2.84-2.34,2.11-5.46,1.93-8.31-.2-3.21,1.8-2.58,3.6-2.59,2.67,0,1.6,1.93,1.58,3.21-.01.83-.76,1.79-.52,2.44.48,1.3,1.42,2.43,2.17,3.63.73-.78,1.76-1.45,2.11-2.38.54-1.45.72-3.07.87-4.64.26-2.82.25-5.68.64-8.48.1-.74,1.24-1.35,1.89-2.01.41.73,1.07,1.42,1.2,2.2.58,3.49.76,7.08,1.62,10.49.35,1.4,2.34,3.64,3.05,3.46,1.85-.48,3.07-2.15,2.92-4.55-.2-3.11-.35-6.29.14-9.34.15-.94,2.47-1.52,3.79-2.27.17.73.42,1.46.51,2.2.52,4,.31,8.26,1.65,11.96,2.45,6.75,4.94,13.36,4.37,20.7-.09,1.12-.09,2.26.03,3.37.05.49.51.94.79,1.41.47-.4,1.2-.7,1.38-1.2,1.14-3.12,3.26-4.7,6.62-4.77,1.2-.03,2.4-.43,3.57-.76.39-.11,1-.56.97-.78-.07-.5-.36-1.09-.76-1.41-3.14-2.56-4.4-6.42-3.43-10.25.75-2.94,2.32-4.08,5.52-4.14,2.9-.05,2.87,2.3,3.91,3.57,2.59,3.15,1.36,8.56-1.91,10.92-.57.41-.94,2.16-.57,2.63.96,1.22,2.26,2.48,3.68,2.97,1.7.58,3.67.36,5.52.48-.14-1.78.41-4.3-.55-5.21-3.63-3.42-3.13-7.34-2.7-11.59.32-3.2,1.76-3.68,4.67-3.78,2.62-.09,3.16,1.53,4.23,3,2.12,2.89,1.3,9.21-1.49,11.31-1.86,1.4-2.6,5.49-1.07,7.1.99,1.03,2.51,2.45,3.62,2.31,4.13-.53,6.16-3.73,5.39-7.82-.1-.55-.79-.98-1.12-1.52-.89-1.45-2.17-2.85-2.48-4.42-.43-2.16.13-4.51-.17-6.72-.36-2.7,1.23-3.66,3.26-3.72,2.1-.06,5.14-.14,6.14,1.1,2.57,3.2,1.01,10.78-2.08,13.56-1.41,1.28-1.93,6.68-.6,7.61,2.64,1.83,5.54,1.32,8.07-.05.8-.43.88-2.49.98-3.82.11-1.6.6-3.45-1.94-4.06-.54-.13-.9-1.92-.96-2.97-.14-2.37-.03-4.74-.05-7.12-.02-2.47,1.18-3.53,3.64-3.66,3.3-.17,6.14-.07,5.45,4.51-.06.41.49.87.57,1.34.55,2.98.13,6.33-2.22,7.79-3.17,1.97-2.05,4.49-2.11,6.86-.09,3.41,3.23.08,4.11,1.85.35-.6.92-1.18,1.03-1.82.35-2.18.49-4.39.81-6.57.12-.81.27-1.87.82-2.31,2.37-1.87,3.36-4.15,2.98-7.15-.05-.43.69-1.29,1.16-1.36.52-.08,1.44.37,1.67.83.47.97.42,2.19.89,3.15.83,1.69,1.91,3.25,2.85,4.88.56.97,1.41,1.92,1.54,2.95.25,1.97.23,4,.04,5.98-.31,3.3,1.39,4.55,4.33,4.56,9.37.04,18.75.07,28.12-.02,2.13-.02,4.27-.49,6.38-.88.37-.07.92-.8.89-1.19-.17-2.24,1.21-5.52-1.56-6.36-3.39-1.03-2.87-3.17-2.87-5.44.01-6.48,2.43-8.64,8.72-7.78.6.08,1.56.52,1.65.94,1.06,4.79.85,9.12-2.53,13.39-1.36,1.73-.69,5.36-.29,8.03.17,1.11,8.71,0,9.51-1.21,1-1.51-.29-6.72-1.8-7.96-.96-.79-2.38-1.85-2.4-2.81-.06-3.44.32-6.9.74-10.32.07-.58,1.11-1.44,1.76-1.5,4.75-.45,7.36,1.59,7.79,6.45.25,2.85,2.3,6.38-1.21,8.45-2.28,1.34-2.23,3.03-2.56,5.16-.57,3.6,2.43,2.84,4,3.89,2.07,1.39,4.43.8,5.22-.85.95-1.97,1.6-5.35.55-6.77-3.04-4.11-4.37-7.77-2.38-12.89.91-2.34,1.74-2.83,3.8-2.82,1.03,0,2.85-.19,2.96-.63.77-3.03,3.59-2.08,5.39-2.95,1.2-.58,2.46-.17,2.32,1.73-.16,2.21.96,2.26,2.52,1.32.9-.54,1.77-1.44,2.71-1.54,2.11-.23,5.96-.51,6.11.04.92,3.38,1.23,6.99,1.22,10.53,0,.95-1.85,1.86-2.79,2.85-.36.39-.68.93-.77,1.44-.61,3.49,1.25,6.35,5.01,6.59,2.51.16,5.8-.1,7.49-1.59,2.35-2.08,4.3-3.06,7.3-2.27.99.26,2.14-.08,3.22-.14-.16-1.04-.27-2.1-.52-3.13-.14-.58-.39-1.23-.79-1.65-3.22-3.38-1.56-7.39-1.37-11.16.03-.57,1.02-1.35,1.71-1.57,1.38-.44,2.86-.68,4.32-.74.7-.03,1.68.34,2.08.87,2.02,2.65,2.03,9.34.16,11.98-3.15,4.46-3.18,8.56,0,12.65.3.38,1.02.58,1.56.61,1.62.08,3.27.19,4.86-.06.64-.1,1.56-1.08,1.62-1.73.38-4.44.43-8.9.88-13.33.29-2.89.99-5.75,1.69-8.57.5-2,1.67-3.87,1.93-5.88.58-4.42.58-4.62,5.03-4.07.51.06,1.14.92,1.34,1.53.76,2.41,1.37,4.86,2.04,7.3,1.23-2.45,2.46-4.9,3.67-7.35.05-.1-.01-.25.02-.37.46-1.76.77-3.58,1.48-5.24.29-.67,1.45-.97,2.21-1.43.27.64.72,1.26.76,1.92.11,1.62-.36,3.38.13,4.84.79,2.36,2.16,4.54,3.28,6.79,1.1-1.83,2.14-3.69,3.3-5.47.74-1.14,1.66-2.16,2.49-3.24.44,1.17.81,2.38,1.37,3.49.18.36.86.46,1.3.68.55-1.17,1.47-2.3,1.57-3.51.24-2.73.03-5.49.1-8.24.02-.82.27-1.66.6-2.41.17-.38.75-.57,1.15-.85.16.38.42.76.45,1.15.28,3.69.45,7.4.81,11.09.12,1.28.59,2.55,1.09,3.74.24.57.93.94,1.42,1.41.4-.71,1.06-1.38,1.15-2.13.37-2.86.46-5.75.87-8.61.1-.68.98-1.26,1.5-1.88.47.54,1.22,1.02,1.38,1.65,1.21,4.62-.3,9.95,3.66,13.88.27.27.12.96.14,1.46.25,6.57.5,13.15.76,19.72.04.98.1,1.96.15,2.94.86-1.37,1.06-2.79,1.36-4.18.36-1.65.44-3.53,1.32-4.86,1.87-2.81,2.69-5.68,2.48-9.04-.1-1.67.28-3.45.82-5.05.23-.67,1.4-1.31,2.2-1.39.4-.04,1.27,1.17,1.34,1.88.19,1.85.28,3.77.02,5.61-.39,2.74.91,4.5,2.86,6.02.44.34,1.01.51,1.52.76.06-.48.11-.97.17-1.45.51-3.76.32-7.8,1.72-11.2,1.41-3.42,2.34-6.67,2.01-10.27-.24-2.59,2.04-1.89,3.19-2.68.44.93,1.33,1.9,1.26,2.79-.29,3.47.35,6.56,2.73,9.2.32.36.56.79.84,1.18.33-.49.86-.94.96-1.48.57-3.08,1.01-6.18,1.58-9.25.16-.85.43-2.05,1.02-2.34.78-.38,2.15-.34,2.84.13.48.33.3,1.7.3,2.6,0,1.2-.58,3.19-.09,3.48,5.25,3.15,4.1,8.27,4.11,12.92,0,4.12-.35,8.25-.73,12.36-.22,2.4.72,2.9,2.96,2.9,3.7,0,7.4.53,11.1.66,8.45.31,16.9.74,25.35.72,10.7-.02,21.4-.62,32.1-.6,3.59,0,7.06-.14,8.96-3.25,1.2-1.98,1.01-4.81,1.44-7.26-2.87-.5-3.87-2.65-3.8-5.11.07-2.41.7-4.83,1.26-7.2.12-.51.93-1.08,1.52-1.21,6-1.32,7.63,0,7.64,6.08,0,1.25.23,2.56-.08,3.73-.28,1.04-.97,2.18-1.82,2.82-1.84,1.38-2.87,6.28-1.15,7.71,1.41,1.17,3.48,2.8,4.9,2.5,4.32-.9,5.26-6.4,2.12-9.64-.87-.9-1.57-2.35-1.62-3.57-.08-2.06.22-4.19.73-6.19.5-1.98.43-4.41,3.86-4.35,2.95.06,4.33.83,4.43,3.88.05,1.55.63,3.1,1.1,4.61.81,2.56.05,4.23-2.43,5.38-.96.45-2.4,1.73-2.27,2.34.48,2.24,1.48,4.39,2.42,6.51.13.3,1.21.53,1.58.31,2.2-1.27,4.31-2.69,6.47-4.04.91-.57,1.8-1.19,2.77-1.61.92-.4,1.95-.55,2.93-.82-.62-1.01-1.03-2.28-1.9-2.97-2.89-2.32-3.25-5.03-1.84-8.26.39-.89.68-1.87.77-2.83.12-1.26-.08-2.82,1.84-2.34,1.91.48,4.48-1.61,5.75,1.42,1.97,4.73,3.08,9.33-1.61,13.3-.44.37-.44,1.32-.5,2.01,0,.1.88.45,1.29.37,2.14-.42,4.28-.88,6.37-1.48.37-.1.82-1.3.75-1.35-4.43-3.34-1.45-7.81-1.71-11.73-.05-.82,1.27-2.44,1.99-2.45,2.06-.05,5.33-.15,5.98.99,2.01,3.53,3.18,8.14.68,11.58-2.7,3.72-.11,5.03,1.65,7.05.28.33.78.46,1.18.69.13-.44.34-.87.37-1.31.27-4.57.73-9.15.68-13.72-.03-2.68.68-4.96,2.53-6.62,1.8-1.62,2.25-3.41,2.07-5.63-.08-.99-.15-2.03.05-2.99.11-.53.9-1.39,1.19-1.32.64.16,1.52.72,1.66,1.28.44,1.78.16,3.84.96,5.38.78,1.53,2.53,2.56,3.85,3.81.67-1.4,1.7-2.73,1.95-4.2.7-4.12,1.04-8.3,1.63-12.44.07-.51.8-.92,1.22-1.38.32.44.87.85.92,1.31.33,3.32.77,6.64.73,9.96-.04,2.63.54,5.52,2.99,5.58,2.93.07,2.12-3.19,2.41-5.31.12-.92.85-2.26,1.59-2.49,1.36-.43,3.01-.48,2.93,1.96-.05,1.44.12,3.05.77,4.29.78,1.5,2.16,2.68,3.28,3.99.62-1.38,1.41-2.71,1.81-4.14.29-1.05.06-2.23.06-3.36,0-1.49-.33-2.95,2.12-2.94,2.12.01,2.51.87,2.42,2.68-.05.95.31,1.92.47,2.89.81,5.14,3.25,9.94,2.61,15.44-.37,3.12.33,6.39.7,9.57.07.62.8,1.57,1.33,1.65,2.93.4,5.89.54,8.84.85,1.95.21,2.6-.51,2.56-2.5-.12-5.37-.15-10.75.03-16.11.05-1.45.99-2.86,1.46-4.3.82-2.52,4.2-3.48,3.84-6.89-.16-1.47,1.07-3.09,1.66-4.64l.89.34c.06,3.41-.64,6.98,2.44,9.67.48.42.79,1.26.84,1.93.32,4.19.7,8.39.73,12.59.03,3.07-.43,6.14-.7,9.21-.26,2.91,2.15,2.5,3.74,2.78.34.06,1.42-1.61,1.44-2.5.13-5.74.06-11.49.08-17.24,0-.99-.29-2.46.23-2.9,2.8-2.35,2.15-5.46,1.94-8.31-.24-3.21,1.76-2.6,3.57-2.62,2.68-.03,1.64,1.91,1.62,3.2-.01.83-.77,1.78-.53,2.44.47,1.3,1.41,2.43,2.15,3.64.73-.77,1.77-1.43,2.12-2.34.55-1.45.73-3.07.88-4.64.26-2.82.24-5.68.62-8.48.1-.75,1.23-1.36,1.89-2.03.42.72,1.09,1.4,1.22,2.17.58,3.49.76,7.08,1.61,10.5.35,1.41,2.31,3.66,3.03,3.48,1.85-.46,3.1-2.12,2.94-4.52-.2-3.11-.35-6.29.14-9.34.15-.94,2.45-1.54,3.77-2.3.18.73.44,1.44.54,2.18.52,4,.31,8.26,1.64,11.96,2.44,6.75,4.94,13.36,4.38,20.7-.09,1.12-.09,2.26.03,3.37.05.5.5.95.77,1.43.48-.38,1.23-.68,1.4-1.17,1.19-3.31,3.45-4.85,6.97-4.8,1.06.01,2.15-.42,3.2-.75.39-.12,1.01-.54.99-.76-.06-.5-.33-1.22-.73-1.41-4.59-2.1-3.78-6.28-3.45-9.88.34-3.73,2-4.32,5.87-4.49,2.84-.13,2.51,2.35,3.53,3.53,2.66,3.08,1.41,8.6-1.85,10.91-.58.41-.97,2.15-.6,2.62.96,1.22,2.25,2.44,3.66,2.99,1.63.64,3.53.57,5.32.81.04-1.83.87-4.59,0-5.34-4.4-3.74-3.62-8.12-2.72-12.83.32-1.66.3-2.9,2.47-2.62,1.6.21,3.56-.36,4.76.39,2.75,1.7,3.5,10.58.96,12.74-3.51,2.98-2.37,5.64-.31,8.55.52.74,1.47,2.07,1.71,1.97,1.89-.83,4.77-1.61,5.21-3.05.61-2.01,1.69-5.14-1.8-6.79-.88-.42-1.18-2.47-1.39-3.83-.26-1.75.05-3.58-.25-5.32-.63-3.72.4-5.28,4.26-5.32,1.74-.02,4.11.05,5.08,1.1,1.88,2.03,1.1,10.46-1.07,12.49-2.15,2-1.89,3.87-1.77,6.5.17,3.64,2.98,3.56,4.51,3.49,1.55-.07,4.18-.68,4.1-3.91-.05-2.16,1.42-4.34-1.61-5.63-.45-.19-.71-1.29-.73-1.99-.08-2.75-.25-5.52.06-8.23.13-1.1,1.19-2.6,2.19-2.99,3.59-1.39,6.07.27,6.74,4.07.1.59.71,1.21.6,1.71-.55,2.58-.47,6.02-2.11,7.48-2.38,2.11-2.02,3.68-1.75,6.29.31,2.96,2.78,1.46,3.69,2.69.35-.89.84-1.76,1.02-2.69.34-1.8.48-3.64.76-5.45.13-.82.12-1.94.64-2.38,2.34-1.99,3.68-4.26,3.18-7.46-.06-.39.74-1.24,1.21-1.3.52-.06,1.4.42,1.62.89.46.97.47,2.15.87,3.16.57,1.44.97,3.51,2.07,4.08,2.63,1.34,2.46,3.37,2.41,5.61-.04,1.87-.08,3.75.05,5.62.03.45.68,1.17,1.12,1.23,1.51.22,3.07.33,4.6.26,10.4-.46,20.8-.96,31.19-1.54.7-.04,1.85-.81,1.92-1.35.17-1.26.09-3.6-.39-3.74-4.33-1.24-3.58-4.7-3.09-7.48.37-2.15,1.67-4.57,3.33-5.92,1.14-.92,3.62-.3,5.48-.12.55.06,1.31.89,1.48,1.5,1.37,4.8.49,9.03-2.79,12.99-3.3,3.99-1.97,8.46,2.49,8.69,2.2.11,4.48-1.08,6.71-1.73.16-.05.24-.41.33-.64.96-2.23-.44-6.47-2.45-8.1-.84-.68-1.89-1.79-1.89-2.7.01-3.32.34-6.65.76-9.95.08-.6,1.06-1.47,1.71-1.55,4.21-.52,7.18,1.42,7.69,5.66.38,3.16,2.7,7.15-1.29,9.43-2.47,1.41-1.65,3.49-2.42,5.24-1.94,4.43,2.36,2,3.27,3.22.13.17.44.21.64.34,1.98,1.32,4.38,1.06,5.27-.66,1.02-1.96,1.85-5.44.82-6.76-3.24-4.18-4.57-8-2.49-13.21.86-2.15,1.63-2.75,3.57-2.61,1.8.13,2.99-.27,4.25-1.97.89-1.2,3.38-1.38,5.2-1.62.36-.05.86,1.78,1.48,2.6.34.45,1.21.97,1.6.83,1.22-.45,2.25-1.49,3.48-1.76,1.98-.44,4.45-1.24,6.01-.47,2.81,1.39,1.9,11.98-.81,13.65-.58.36-1.22,1.07-1.31,1.69-.44,2.97-.21,5.96,3.65,6.05,2.99.07,6.61.16,8.84-1.37,2.35-1.62,4.21-2.71,7.01-2.25,1.15.19,2.37-.04,3.55-.08-.23-1.18-.36-2.38-.72-3.52-.25-.8-.71-1.6-1.26-2.24-2.88-3.37-.61-7.05-.63-10.58,0-.4,1.27-.94,2.03-1.17,1.16-.35,2.38-.67,3.57-.67.81,0,1.95.34,2.39.93,2.06,2.8,2.01,9.32.09,11.95-3.03,4.17-3.03,8.99.07,12.68.26.31.82.5,1.25.52,1.75.06,3.52.19,5.24-.06.61-.09,1.48-1.14,1.54-1.8.38-4.69.44-9.4.87-14.08.23-2.52.88-5.03,1.54-7.49.57-2.11,1.78-4.09,2.08-6.21.55-3.99,1.45-4.85,5.49-4,.44.09,1.07.56,1.14.94.4,2.31.65,4.65.99,6.97.05.31.32.58.49.87.33-.26.81-.45.97-.79,1.04-2.18,2.12-4.34,2.95-6.6.67-1.81.83-3.81,1.55-5.59.26-.65,1.48-.92,2.27-1.36.24.67.64,1.33.68,2.02.1,1.74-.38,3.64.15,5.21.74,2.22,2.19,4.2,3.33,6.28,1.02-1.73,2.04-3.46,3.04-5.2.12-.21.1-.51.24-.68.82-.94,1.68-1.86,2.52-2.78.41,1.07.86,2.14,1.22,3.22.15.46.13.98.19,1.47.5-.29,1.2-.45,1.45-.88.58-1.01,1.23-2.12,1.31-3.23.19-2.61,0-5.24.09-7.87.03-.93.31-1.89.66-2.77.14-.36.77-.54,1.17-.8.13.41.34.82.37,1.25.27,3.82.47,7.65.8,11.46.09,1.04.43,2.12.91,3.06.34.66,1.11,1.09,1.69,1.62.37-.73.98-1.43,1.08-2.2.36-2.73.44-5.51.86-8.23.12-.79,1.04-1.45,1.59-2.17.45.7,1.18,1.35,1.3,2.1.5,3.27-.2,7.26,1.45,9.68,2.37,3.49,2.2,6.87,2.38,10.53.27,5.81.71,11.62,1.07,17.42.79-2.38.27-5.42,1.53-7.23,2.92-4.18,3.28-8.84,4.02-13.51.12-.74-.18-1.69.19-2.2.56-.76,1.53-1.23,2.32-1.82.44.69,1.2,1.36,1.27,2.09.18,1.86.28,3.77.01,5.61-.4,2.76,1.03,4.45,2.91,6,.36.3.79.51,1.18.77.15-.54.36-1.07.44-1.62.52-3.63.36-7.53,1.68-10.83,1.41-3.53,2.42-6.88,2.08-10.63-.23-2.53,2.09-1.83,3.25-2.59.42.84,1.22,1.69,1.18,2.51-.15,3.39-.07,6.64,2.55,9.25.41.4.72.91,1.07,1.36.31-.5.8-.97.9-1.51.57-3.2,1.3-6.41,1.47-9.64.13-2.49,1.61-2,3.03-2.01,2.1,0,1.46,1.41,1.39,2.61-.07,1.35-.48,3.54.14,3.92,3.76,2.29,3.68,5.97,3.7,9.45.02,5.24-.29,10.5-.73,15.73-.28,3.32.65,4.35,4.18,4.34,52.37-.13,104.73-.09,157.1-.09ZM310.82,37.77c-.37-.82-.74-1.64-1.11-2.46-1.22,1.12-2.45,2.23-3.67,3.35.69.69,1.27,1.79,2.08,2,2.29.59,2.7-.87,2.7-2.89ZM828.19,37.74c-.27-.83-.54-1.66-.82-2.49-1.3,1.17-2.6,2.35-3.9,3.52.73.65,1.36,1.69,2.19,1.89,2.48.6,2.43-1.18,2.52-2.93ZM316.99,38.91c1.18,1.28,1.97,2.38,2.16,2.29,1.11-.56,3.3-.25,2.61-2.58-.23-.78-.65-1.51-.99-2.26-1.07.72-2.14,1.45-3.78,2.56ZM840.36,38.58c-1.31-1.13-1.93-2.07-2.4-2-1.58.23-3.05.93-2.47,3.01.18.63.7,1.16,1.07,1.73,1.04-.75,2.08-1.5,3.79-2.74ZM316.37,38.74c-.94-.69-1.77-1.35-2.66-1.89-.07-.04-.95.91-.87,1.04.69,1.1,1.5,2.11,2.28,3.15.28-.51.56-1.03,1.25-2.3ZM833.83,38.79c-.97-.74-1.78-1.39-2.66-1.93-.07-.05-.96.89-.89,1.01.68,1.1,1.49,2.12,2.26,3.17.29-.5.58-1,1.29-2.24Z"/>
      <path class="cls-1" d="M310.82,37.77c0,2.01-.41,3.48-2.7,2.89-.81-.21-1.39-1.31-2.08-2,1.22-1.12,2.45-2.23,3.67-3.35.37.82.74,1.64,1.11,2.46Z"/>
      <path class="cls-1" d="M828.19,37.74c-.1,1.74-.04,3.53-2.52,2.93-.83-.2-1.47-1.24-2.19-1.89,1.3-1.17,2.6-2.35,3.9-3.52.27.83.54,1.66.82,2.49Z"/>
      <path class="cls-1" d="M316.99,38.91c1.64-1.11,2.71-1.83,3.78-2.56.33.75.76,1.48.99,2.26.69,2.33-1.5,2.02-2.61,2.58-.19.09-.97-1.01-2.16-2.29Z"/>
      <path class="cls-1" d="M840.36,38.58c-1.71,1.23-2.75,1.99-3.79,2.74-.37-.57-.89-1.1-1.07-1.73-.58-2.08.88-2.77,2.47-3.01.47-.07,1.09.87,2.4,2Z"/>
      <path class="cls-1" d="M316.37,38.74c-.69,1.27-.97,1.78-1.25,2.3-.78-1.04-1.6-2.05-2.28-3.15-.08-.13.8-1.08.87-1.04.9.55,1.73,1.2,2.66,1.89Z"/>
      <path class="cls-1" d="M833.83,38.79c-.71,1.24-1,1.74-1.29,2.24-.77-1.05-1.58-2.07-2.26-3.17-.07-.12.82-1.05.89-1.01.88.54,1.69,1.2,2.66,1.93Z"/>
    </g>
  </g>
</svg>